HIERARCHY
ROOT Pelvis
{
	OFFSET 0.000000 0.000000 0.000000
	CHANNELS 6 Xposition Yposition Zposition Xrotation Yrotation Zrotation
	JOINT LeftUpLeg_virtual
	{
		OFFSET 0.000000 0.000000 0.000000
		CHANNELS 3 Xrotation Yrotation Zrotation
		JOINT LeftUpLeg
		{
			OFFSET 18.735201 -5.666702 -4.541200
			CHANNELS 3 Xrotation Yrotation Zrotation
			JOINT LeftLeg
			{
				OFFSET -0.021200 -31.938179 0.493100
				CHANNELS 3 Xrotation Yrotation Zrotation
				JOINT LeftFoot
				{
					OFFSET 0.021200 -31.938179 -4.336299
					CHANNELS 3 Xrotation Yrotation Zrotation
					JOINT LeftToeBase
					{
						OFFSET 0.943001 -26.722000 15.023500
						CHANNELS 3 Xrotation Yrotation Zrotation
						End Site
						{
							OFFSET 0 0 0
						}
					}
				}
			}
		}
	}
	JOINT RightUpLeg_virtual
	{
		OFFSET 0.000000 0.000000 0.000000
		CHANNELS 3 Xrotation Yrotation Zrotation
		JOINT RightUpLeg
		{
			OFFSET -18.735201 -5.666702 -4.541200
			CHANNELS 3 Xrotation Yrotation Zrotation
			JOINT RightLeg
			{
				OFFSET 0.018946 -31.938133 0.493100
				CHANNELS 3 Xrotation Yrotation Zrotation
				JOINT RightFoot
				{
					OFFSET -0.018946 -31.938126 -4.336299
					CHANNELS 3 Xrotation Yrotation Zrotation
					JOINT RightToeBase
					{
						OFFSET -0.943001 -26.722004 15.023500
						CHANNELS 3 Xrotation Yrotation Zrotation
						End Site
						{
							OFFSET 0 0 0
						}
					}
				}
			}
		}
	}
	JOINT Hips_virtual
	{
		OFFSET 0.000000 0.000000 0.000000
		CHANNELS 3 Xrotation Yrotation Zrotation
		JOINT Hips
		{
			OFFSET -0.000000 -0.000000 -0.000000
			CHANNELS 3 Xrotation Yrotation Zrotation
			JOINT Spine
			{
				OFFSET 0.000000 10.199997 -0.299500
				CHANNELS 3 Xrotation Yrotation Zrotation
				JOINT Spine1
				{
					OFFSET 0.000000 11.900002 -1.516600
					CHANNELS 3 Xrotation Yrotation Zrotation
					JOINT Spine2
					{
						OFFSET 0.000000 13.600006 -2.842500
						CHANNELS 3 Xrotation Yrotation Zrotation
						JOINT Neck_virtual
						{
							OFFSET 0.000000 0.000000 0.000000
							CHANNELS 3 Xrotation Yrotation Zrotation
							JOINT Neck
							{
								OFFSET 0.000000 9.624100 -2.890100
								CHANNELS 3 Xrotation Yrotation Zrotation
								JOINT Head
								{
									OFFSET 0.000000 14.068802 -1.351900
									CHANNELS 3 Xrotation Yrotation Zrotation
									End Site
									{
										OFFSET 0 0 0
									}
								}
							}
						}
						JOINT LeftShoulder_virtual
						{
							OFFSET 0.000000 0.000000 0.000000
							CHANNELS 3 Xrotation Yrotation Zrotation
							JOINT LeftShoulder
							{
								OFFSET 15.263000 10.923401 -0.547700
								CHANNELS 3 Xrotation Yrotation Zrotation
								JOINT LeftArm
								{
									OFFSET 25.438599 -2.830597 -13.032500
									CHANNELS 3 Xrotation Yrotation Zrotation
									JOINT LeftForeArm
									{
										OFFSET 29.960503 0.000000 0.000000
										CHANNELS 3 Xrotation Yrotation Zrotation
										JOINT LeftHand
										{
											OFFSET 27.849251 0.000000 0.000000
											CHANNELS 3 Xrotation Yrotation Zrotation
											End Site
											{
												OFFSET 0 0 0
											}
										}
									}
								}
							}
						}
						JOINT RightShoulder_virtual
						{
							OFFSET 0.000000 0.000000 0.000000
							CHANNELS 3 Xrotation Yrotation Zrotation
							JOINT RightShoulder
							{
								OFFSET -15.263000 10.923401 -0.547700
								CHANNELS 3 Xrotation Yrotation Zrotation
								JOINT RightArm
								{
									OFFSET -25.438599 -2.830597 -13.032500
									CHANNELS 3 Xrotation Yrotation Zrotation
									JOINT RightForeArm
									{
										OFFSET -29.960503 0.000000 0.000000
										CHANNELS 3 Xrotation Yrotation Zrotation
										JOINT RightHand
										{
											OFFSET -27.849251 0.000000 0.000000
											CHANNELS 3 Xrotation Yrotation Zrotation
											End Site
											{
												OFFSET 0 0 0
											}
										}
									}
								}
							}
						}
					}
				}
			}
		}
	}
}
MOTION
Frames: 10
Frame Time: 0.03333333
-3.526494 78.410347 3.057339 0.000000 0.000000 0.000000 11.660451 -49.374430 11.268424 -69.006999 20.606691 47.788187 51.256642 -22.124390 3.397203 2.960956 1.488350 -15.125340 0.000000 0.000000 0.000000 11.660451 -49.374430 11.268424 -33.116066 3.851064 -30.939828 58.819438 4.953724 -6.674930 -30.773615 -6.443076 30.151874 0.000000 0.000000 0.000000 11.660451 -49.374430 11.268424 0.000000 0.000001 0.000000 10.972583 2.720605 -2.032964 6.100716 5.566534 -4.284688 0.000000 0.000000 0.000000 -5.786912 6.328147 -3.046186 0.458771 1.873441 -0.022635 0.000000 0.000000 0.000000 -5.786912 6.328147 -3.046186 -1.882852 -16.244763 -2.883354 -10.641492 2.224945 -45.488356 -22.862380 -25.786228 -15.871705 0.000000 0.000000 0.000000 -5.786912 6.328147 -3.046186 -5.080957 24.428086 1.493067 6.647368 -34.818556 57.612898 -21.031974 44.833795 19.961655 0.000000 0.000000 0.000000 
-3.566438 78.409691 3.045998 0.000000 0.000000 0.000000 11.644599 -49.518950 11.272035 -68.890456 20.608233 47.858712 51.296196 -21.958558 3.462256 2.885260 1.509367 -15.243503 0.000000 0.000000 0.000000 11.644599 -49.518950 11.272035 -33.154083 3.957145 -30.872216 58.885021 4.956371 -6.674050 -30.786313 -6.411186 30.123597 0.000000 0.000000 0.000000 11.644599 -49.518950 11.272035 0.000000 -0.000002 0.000000 10.970336 2.777805 -2.047704 6.133756 5.604295 -4.247334 0.000000 0.000000 0.000000 -5.764549 6.336169 -3.016237 0.454579 1.881894 -0.068544 0.000000 0.000000 0.000000 -5.764549 6.336169 -3.016237 -1.902991 -16.283502 -3.000824 -10.665524 2.222330 -45.395138 -22.827814 -25.744957 -15.838637 0.000000 0.000000 0.000000 -5.764549 6.336169 -3.016237 -5.036447 24.265313 1.406470 6.704552 -34.680306 57.476062 -20.413771 44.915426 19.709416 0.000000 0.000000 0.000000 
-3.605519 78.406738 3.034641 0.000000 0.000000 0.000000 11.499362 -49.658293 11.196948 -68.694518 20.628922 47.904601 51.317691 -21.983498 3.525117 2.793487 1.529152 -15.365018 0.000000 0.000000 0.000000 11.499362 -49.658293 11.196948 -33.121821 4.062452 -30.851380 58.962127 4.999148 -6.668729 -30.740052 -6.370257 30.094025 0.000000 0.000000 0.000000 11.499362 -49.658293 11.196948 0.000000 0.000001 0.000000 10.990202 2.818062 -2.069370 6.210101 5.609813 -4.231207 0.000000 0.000000 0.000000 -5.697412 6.318245 -3.012862 0.428781 1.894664 -0.098621 0.000000 0.000000 0.000000 -5.697412 6.318245 -3.012862 -1.908075 -16.258750 -3.020667 -10.687439 2.247380 -45.360044 -22.769670 -25.731443 -15.803253 0.000000 0.000000 0.000000 -5.697412 6.318245 -3.012862 -5.072082 24.344582 1.612733 6.672739 -34.749636 56.881710 -18.584964 45.084030 18.881607 0.000000 0.000000 0.000000 
-3.642931 78.408020 2.993196 0.000000 0.000000 0.000000 11.419932 -49.845150 11.184739 -68.503922 20.676335 47.954468 51.303941 -21.846071 3.621450 2.729358 1.526309 -15.527518 0.000000 0.000000 0.000000 11.419932 -49.845150 11.184739 -33.183525 4.235283 -30.784148 59.091238 5.029776 -6.663521 -30.721795 -6.326233 30.039472 0.000000 0.000000 0.000000 11.419932 -49.845150 11.184739 0.000000 -0.000001 0.000000 10.998923 2.854682 -2.089135 6.262219 5.612150 -4.216224 0.000000 0.000000 0.000000 -5.653939 6.298713 -3.010386 0.421707 1.919859 -0.157107 0.000000 0.000000 0.000000 -5.653939 6.298713 -3.010386 -1.889329 -15.962412 -3.044855 -10.743598 2.048047 -45.378961 -22.673242 -25.677861 -15.719317 0.000000 0.000000 0.000000 -5.653939 6.298713 -3.010386 -5.079896 24.138011 1.822007 6.573139 -34.379542 55.764550 -14.830238 45.143302 17.007531 0.000000 0.000000 0.000000 
-3.674470 78.412361 2.967403 0.000000 0.000000 0.000000 11.179549 -49.946885 11.126602 -68.161081 20.807241 47.816560 51.204350 -21.764920 3.770265 2.696761 1.510527 -15.718154 0.000000 0.000000 0.000000 11.179549 -49.946885 11.126602 -33.158072 4.350014 -30.895176 59.255361 5.160415 -6.644782 -30.695119 -6.274441 29.965174 0.000000 0.000000 0.000000 11.179549 -49.946885 11.126602 0.000000 -0.000001 0.000000 11.016278 2.882926 -2.117346 6.331287 5.599948 -4.228953 0.000000 0.000000 0.000000 -5.592460 6.271878 -3.037229 0.407290 1.941231 -0.206338 0.000000 0.000000 0.000000 -5.592460 6.271878 -3.037229 -1.896887 -15.889942 -3.087228 -10.739187 2.060720 -45.364245 -22.581790 -25.698816 -15.654616 0.000000 0.000000 0.000000 -5.592460 6.271878 -3.037229 -5.134575 24.848314 2.120643 6.274985 -34.716164 53.957668 -9.547835 44.108440 14.324986 0.000000 0.000000 0.000000 
-3.728015 78.424469 2.870449 0.000000 0.000000 0.000000 11.043806 -50.311942 11.039258 -67.874370 20.837324 47.999260 51.169011 -21.502025 3.936909 2.625065 1.499205 -16.013805 0.000000 0.000000 0.000000 11.043806 -50.311942 11.039258 -33.216265 4.732233 -30.581178 59.416861 5.078693 -6.666195 -30.596871 -6.225574 29.915190 0.000000 0.000000 0.000000 11.043806 -50.311942 11.039258 0.000000 0.000001 0.000000 11.024987 2.942097 -2.160350 6.382740 5.650905 -4.268035 0.000000 0.000000 0.000000 -5.549334 6.313477 -3.075854 0.407561 1.973432 -0.255498 0.000000 0.000000 0.000000 -5.549334 6.313477 -3.075854 -1.897086 -15.736761 -3.122411 -10.731345 2.116090 -45.273424 -22.485244 -25.736436 -15.596576 0.000000 0.000000 0.000000 -5.549334 6.313477 -3.075854 -5.016334 24.084190 2.123981 5.607362 -33.057528 51.658729 -2.901368 41.376613 11.041939 0.000000 0.000000 0.000000 
-3.778486 78.435768 2.778229 0.000000 0.000000 0.000000 10.842349 -50.643073 10.924614 -67.537136 20.884167 48.098943 51.081878 -21.461902 4.094074 2.555556 1.495188 -16.303100 0.000000 0.000000 0.000000 10.842349 -50.643073 10.924614 -33.196833 5.138024 -30.284280 59.567084 4.974303 -6.710828 -30.475505 -6.197781 29.904259 0.000000 0.000000 0.000000 10.842349 -50.643073 10.924614 0.000000 -0.000001 0.000000 11.039356 2.975935 -2.238204 6.447401 5.652632 -4.384800 0.000000 0.000000 0.000000 -5.490717 6.324088 -3.200000 0.390977 1.986841 -0.244625 0.000000 0.000000 0.000000 -5.490717 6.324088 -3.200000 -1.892130 -15.676847 -3.056775 -10.684152 2.325813 -45.124990 -22.465274 -25.817495 -15.514935 0.000000 0.000000 0.000000 -5.490717 6.324088 -3.200000 -4.992330 24.477597 2.436424 5.492930 -32.730270 49.929899 3.493383 38.566315 8.525795 0.000000 0.000000 0.000000 
-3.822506 78.465866 2.666950 0.000000 0.000000 0.000000 10.617715 -51.009588 10.776955 -67.176215 20.943083 48.174895 50.980706 -21.373453 4.297392 2.492341 1.486847 -16.607904 0.000000 0.000000 0.000000 10.617715 -51.009588 10.776955 -33.123030 5.585950 -29.898081 59.701031 4.756790 -6.777193 -30.424804 -6.209485 29.927191 0.000000 0.000000 0.000000 10.617715 -51.009588 10.776955 0.000000 0.000001 0.000000 11.067209 3.006625 -2.347614 6.540392 5.650986 -4.567362 0.000000 0.000000 0.000000 -5.402614 6.346202 -3.388477 0.356216 1.991301 -0.196959 0.000000 0.000000 0.000000 -5.402614 6.346202 -3.388477 -1.871143 -15.525597 -2.933223 -10.715536 2.416199 -44.891292 -22.379701 -25.872226 -15.444702 0.000000 0.000000 0.000000 -5.402614 6.346202 -3.388477 -4.973850 24.906821 2.769633 5.002018 -32.090831 48.325788 9.267262 34.664972 7.031268 0.000000 0.000000 0.000000 
-3.892610 78.501045 2.542881 0.000000 0.000000 0.000000 10.438581 -51.337754 10.648956 -66.730422 20.965378 48.166241 50.808459 -20.965643 4.634504 2.461101 1.475004 -17.092443 0.000000 0.000000 0.000000 10.438581 -51.337754 10.648956 -32.996371 6.063601 -29.421853 59.800526 4.396436 -6.875165 -30.359549 -6.256542 30.010509 0.000000 0.000000 0.000000 10.438581 -51.337754 10.648956 0.000000 -0.000001 0.000000 11.111243 3.041155 -2.489355 6.667156 5.659037 -4.816345 0.000000 0.000000 0.000000 -5.279802 6.392598 -3.639196 0.260782 1.976906 -0.107052 0.000000 0.000000 0.000000 -5.279802 6.392598 -3.639196 -1.815695 -15.200629 -2.652851 -10.878628 2.223976 -44.702523 -22.305289 -25.873440 -15.300182 0.000000 0.000000 0.000000 -5.279802 6.392598 -3.639196 -4.959383 25.346125 3.115289 4.203187 -31.045723 46.983577 14.417344 29.637704 6.464259 0.000000 0.000000 0.000000 
-3.947227 78.567398 2.396957 0.000000 0.000000 0.000000 10.218622 -51.501057 10.566709 -66.262657 21.142844 47.844755 50.414760 -20.349780 5.075689 2.682951 1.400538 -17.550856 0.000000 0.000000 0.000000 10.218622 -51.501057 10.566709 -32.829495 6.473277 -29.055819 59.913757 4.004453 -6.988934 -30.333543 -6.324911 30.095405 0.000000 0.000000 0.000000 10.218622 -51.501057 10.566709 0.000000 -0.000001 0.000000 11.173103 3.074425 -2.634106 6.828874 5.668805 -5.082503 0.000000 0.000000 0.000000 -5.121366 6.445378 -3.905612 0.158195 1.942900 -0.013965 0.000000 0.000000 0.000000 -5.121366 6.445378 -3.905612 -1.802869 -15.278223 -2.436295 -11.186188 2.123031 -44.426159 -22.105808 -25.767526 -15.111324 0.000000 0.000000 0.000000 -5.121366 6.445378 -3.905612 -5.023510 26.352996 3.582494 3.165736 -30.166384 45.859164 19.125710 23.662396 6.522567 0.000000 0.000000 0.000000 
